PathFileType	4	(X/Y/Z)	C:/Users/beibeiliu/ov580/test_trc/User3\sequence.7_training_dense_right.trc
DataRate	CameraRate	NumFrames	NumMarkers	Units	OrigDataRate	OrigDataStartFrame	OrigNumFrames
120	120	8	19	mm	120	27	80
Frame#	Time	ThumbCMC			ThumbMCP			ThumbIP			ThumbTip			IndexMCP			IndexPIP			IndexTip			MiddleMCP			MiddlePIP			MiddleTip			RingMCP			RingPIP			RingTip			PinkyMCP			PinkyPIP			PinkyTip			BackHand1			BackHand2			BackHand3	
		X0	Y0	Z0	X1	Y1	Z1	X2	Y2	Z2	X3	Y3	Z3	X4	Y4	Z4	X5	Y5	Z5	X6	Y6	Z6	X7	Y7	Z7	X8	Y8	Z8	X9	Y9	Z9	X10	Y10	Z10	X11	Y11	Z11	X12	Y12	Z12	X13	Y13	Z13	X14	Y14	Z14	X15	Y15	Z15	X16	Y16	Z16	X17	Y17	Z17	X18	Y18	Z18	
26	0.216667	177.417	96.5711	-29.902	176.674	111.748	-50.7784	174.381	131.415	-72.0337	174.011	144.565	-91.5865	203.94	91.589	-96.4929	182.201	68.1733	-103.772	175.133	73.516	-69.5278	214.984	73.0962	-96.026	187.959	50.8743	-93.2087	190.245	58.5054	-57.157	217.101	55.5232	-90.3166	190.816	40.2766	-82.4215	190.377	48.5505	-49.4861	225.046	38.3417	-79.5816	198.672	33.2952	-73.5818	198.751	40.5438	-45.7045	235.085	73.4137	-36.9622	225.74	65.7179	-6.79549	209.832	95.7785	-22.6854	
27	0.225	167.038	91.8978	-36.6973	162.41	102.718	-61.728	160.33	118.91	-90.4841	152.664	126.379	-106.077	199.977	83.7018	-106.249	180.723	59.0912	-109.715	173.327	64.3393	-75.0384	212.789	70.2795	-103.492	193.146	43.3152	-99.3198	189.177	58.5662	-61.0396	224.347	56.2049	-91.6715	198.968	35.8386	-87.0546	196.173	45.1137	-53.4928	232.11	44.2166	-82.6382	211.367	25.9938	-75.4691	204.366	43.231	-47.7793	234.055	82.4901	-45.1385	221.771	78.9712	-10.8345	203.227	99.4151	-36.2124	
28	0.233333	164.531	80.2976	-47.5326	157.112	87.3638	-74.5694	149.381	94.1725	-98.1342	139.063	100.333	-117.099	190.993	68.4038	-116.285	177.802	41.1001	-112.504	173.639	50.9557	-77.2615	208.439	57.6469	-110.819	192.263	31.4033	-103.025	189.287	46.7288	-64.5059	220.335	46.3577	-98.5865	204.839	23.3376	-86.7797	197.421	36.9893	-57.5569	232.152	39.788	-86.5908	213.582	21.7216	-75.8568	210.657	34.3872	-48.9621	227.938	83.8836	-53.6904	221.163	80.2191	-20.5302	194.409	95.6307	-48.4702	
29	0.241667	163.634	63.8835	-48.778	152.412	61.9944	-75.0501	137.999	65.8958	-103.111	129.675	66.8178	-122.496	188.716	42.4834	-116.973	179.539	16.3826	-107.426	176.275	28.0704	-76.2136	206.302	35.8189	-112.973	195.634	11.1039	-95.293	189.061	35.346	-63.2518	221.057	32.4518	-98.8843	206.963	9.11755	-81.5465	198.83	28.587	-55.422	233.128	29.6579	-88.2372	218.36	10.3538	-71.3277	215.745	27.0181	-47.8099	225.282	75.8975	-65.3142	222.002	78.5101	-30.5904	188.033	83.3049	-53.7289	
30	0.25	161.748	47.1377	-46.6956	148.399	38.5515	-69.0248	133.363	32.2758	-90.4042	121.477	27.3656	-105.53	177.508	17.7984	-109.329	180.718	-8.01778	-91.1048	178.473	8.72559	-64.3699	200.299	13.2088	-105.855	195.735	-9.41457	-81.9422	193.614	19.6924	-56.2698	217.088	11.6881	-95.7747	208.417	-6.64034	-72.3003	205.212	20.152	-48.2047	229.238	14.5917	-86.7356	218.678	-0.134874	-66.2947	216.404	19.2122	-45.8628	220.335	63.0877	-71.2375	218.549	70.9602	-41.1676	184.857	69.1039	-56.859	
31	0.258333	162.524	35.7809	-32.4499	144.244	21.4477	-53.4551	126.378	12.0412	-69.1091	108.771	3.74794	-80.3991	171.799	-0.919703	-93.3833	172.845	-25.9491	-69.5477	177.126	-1.4212	-47.5299	191.445	-8.47322	-92.3906	192.196	-25.2009	-64.7077	189.4	10.4168	-42.2316	207.283	-7.06684	-83.4785	206.731	-18.6692	-55.5872	200.785	6.335	-37.5315	225.03	-2.62241	-78.0496	216.854	-12.632	-54.4702	212.985	12.1924	-38.0192	212.332	47.6478	-71.1222	215.463	63.8906	-40.7921	184.837	55.4559	-52.3281	
32	0.266667	157.899	37.7742	-14.7607	135.272	22.2476	-33.0244	112.607	13.1115	-46.921	96.1916	4.97162	-54.5005	153.947	-8.39379	-73.7366	152.139	-29.6678	-44.6019	160.962	-5.37324	-29.2983	172.716	-15.6681	-73.6167	170.191	-31.4872	-42.4218	182.04	3.29745	-27.0951	191.105	-18.1362	-66.94	189.035	-27.7079	-37.4646	193.971	3.91225	-22.9509	207.907	-16.1271	-63.9671	205.421	-22.9837	-35.601	204.62	7.74165	-25.6105	208.437	35.5851	-63.2705	218.657	49.9111	-37.6086	181.179	48.0274	-45.3829	
33	0.275	151.779	46.2165	-6.16208	126.565	37.7241	-15.9536	101.263	30.7455	-28.8142	80.578	28.4543	-37.1553	126.665	-3.93088	-55.0399	124.721	-19.4796	-27.8755	144.048	3.97247	-14.5523	149.994	-14.7731	-56.5575	142.375	-26.1796	-24.7025	159.657	6.51693	-11.8176	164.302	-23.3351	-47.5483	163.155	-25.9243	-18.5584	175.964	2.05001	-8.53866	180.247	-24.9435	-45.3962	176.662	-24.5132	-17.8901	188.062	6.07753	-8.31529	194.847	27.8032	-54.6696	207.981	41.8399	-32.0739	171.971	51.1524	-32.89	
